<?xml version="1.0" encoding="utf-8"?>
<!-- Generator: Adobe Illustrator 19.2.1, SVG Export Plug-In . SVG Version: 6.00 Build 0)  -->
<svg version="1.1" id="layer" xmlns="http://www.w3.org/2000/svg" xmlns:xlink="http://www.w3.org/1999/xlink" x="0px" y="0px"
	 viewBox="0 0 652 652" style="enable-background:new 0 0 652 652;" xml:space="preserve">
<style type="text/css">
	.st0{fill:#1A1919;}
</style>
<g id="Page-1">
	<g id="tc">
		<polygon id="Fill-1" class="st0" points="132.6,308 188.7,308 188.7,279.4 132.6,279.4 		"/>
		<polyline id="Fill-2" class="st0" points="20.5,279.4 20.5,308 48.5,308 48.5,365.2 76.5,365.2 76.5,308 104.6,308 104.6,279.4 
			20.5,279.4 		"/>
		<polyline id="Fill-3" class="st0" points="104.6,365.2 188.7,365.2 188.7,336.6 132.6,336.6 132.6,308 104.6,308 104.6,365.2 		
			"/>
		<polyline id="Fill-4" class="st0" points="260.2,301 219,301 219,312.9 232.8,312.9 232.8,350.2 246.4,350.2 246.4,312.9 
			260.2,312.9 260.2,301 		"/>
		<path id="Fill-5" class="st0" d="M275.7,312.5c-9.7,0-16.9,6.5-16.9,19.3c0,11.3,6.1,19.2,17.2,19.2c5.8,0,10.5-1.5,15-4.2
			l-4.8-8.1c-3.7,1.9-6.3,2.6-9.6,2.6c-3.4,0-5.8-1.8-6.3-5.9h21.7c0.1-0.6,0.1-1.4,0.1-2.5C292.2,319.2,285.9,312.5,275.7,312.5z
			 M270.5,327.5c0.4-3.7,2-5.6,4.9-5.6c3.7,0,5,1.9,5.6,5.6H270.5z"/>
		<path id="Fill-6" class="st0" d="M316.2,340.7c-3.4,0-5.2-3-5.2-8.9c0-5.8,1.6-9.1,4.9-9.1c2.7,0,3.9,1.5,5.7,4.8l8.7-6.6
			c-3.2-5.2-7.2-8.4-14.2-8.4c-11.8,0-17.6,7.8-17.6,19.1c0,12.4,6.5,19.3,17.3,19.3c6.5,0,10.5-2.5,14.8-8.8l-8-6.3
			C320.2,339.4,318.6,340.7,316.2,340.7"/>
		<path id="Fill-7" class="st0" d="M359.8,312.5c-4.4,0-7,1.5-9.3,3.2V299l-12.7,5.1v46.2h12.7v-21.1c0-4.6,1.6-5.9,4.3-5.9
			c2.6,0,4.2,1.3,4.2,6v21h12.7v-22.6C371.7,318,367.8,312.5,359.8,312.5"/>
		<path id="Fill-8" class="st0" d="M402.2,339.1c-5.9,0-8.3-6-8.3-13.5c0-7.8,2.5-13.5,8.2-13.5c4.5,0,6.2,2.9,7.9,7.5l12.4-4.9
			c-3.4-9.3-8.2-14.5-20.3-14.5c-13.2,0-22.5,9.6-22.5,25.4c0,14.6,7.8,25.4,22.4,25.4c11.7,0,17.2-6.3,20.5-12.7l-11.5-6.1
			C408.3,336.8,406.5,339.1,402.2,339.1"/>
		<path id="Fill-9" class="st0" d="M442.9,316v-2.7h-12.7v36.9h12.7v-20.1c0-4.5,1.9-6,5-6c2.5,0,4.3,1.3,5.9,3.1l3-13.1
			c-1.5-0.9-3.3-1.6-6-1.6C447.5,312.5,445,313.9,442.9,316"/>
		<path id="Fill-10" class="st0" d="M483.9,334.4c0,4.6-1.6,5.9-4.2,5.9c-2.6,0-4.2-1.3-4.2-6v-21h-12.7v22.6
			c0,9.7,3.9,15.1,12,15.1c4.3,0,7-1.5,9.2-3.2v2.5h12.7v-36.9h-12.7V334.4"/>
		<path id="Fill-11" class="st0" d="M527.8,312.5c-4.4,0-7,1.5-9.3,3.2v-2.5h-12.7v36.9h12.7v-21.1c0-4.6,1.6-5.9,4.3-5.9
			c2.6,0,4.2,1.3,4.2,6v21h12.7v-22.6C539.7,318,535.9,312.5,527.8,312.5"/>
		<path id="Fill-12" class="st0" d="M564.9,340.7c-3.4,0-5.2-3-5.2-8.9c0-5.8,1.6-9.1,4.8-9.1c2.7,0,3.9,1.5,5.7,4.8l8.7-6.6
			c-3.2-5.2-7.2-8.4-14.2-8.4c-11.8,0-17.6,7.8-17.6,19.1c0,12.4,6.5,19.3,17.3,19.3c6.5,0,10.5-2.5,14.8-8.8l-8-6.3
			C569,339.4,567.3,340.7,564.9,340.7"/>
		<path id="Fill-13" class="st0" d="M608.5,312.5c-4.4,0-7,1.5-9.3,3.2V299l-12.7,5.1v46.2h12.7v-21.1c0-4.6,1.6-5.9,4.3-5.9
			c2.6,0,4.2,1.3,4.2,6v21h12.7v-22.6C620.5,318,616.6,312.5,608.5,312.5"/>
	</g>
</g>
</svg>
